/* XPM */
static char *fcfa8eb86b5744b386cf6126c49605c1QUUbWuNhvOReDoqd[] = {
/* columns rows colors chars-per-pixel */
"64 64 10 1 ",
"  c None",
". c #51311F",
"X c #684A09",
"o c #7F5C0B",
"O c #75472C",
"+ c #A5750E",
"@ c #DBA213",
"# c #FFCD38",
"$ c #FFD547",
"% c white",
/* pixels */
"                                                                ",
"                                                                ",
"                                                                ",
"                                                                ",
"                                                                ",
"                                                                ",
"                                                                ",
"                              .....                             ",
"               @########      ......                            ",
"               @##########    OOOO...                           ",
"               +@###########    OOO...                          ",
"               +@@@@@#########   OOO..                          ",
"               ++@@@@@@@#######   OO..                          ",
"                +@@@@@@@@@######  OO..                          ",
"                ++@@@@@@@@@#####  OO..                          ",
"                 +@@@@@@@@@@##### OO..                          ",
"                 ++@@@@@@@@@@#### OO..XXX                       ",
"                  +++@@@@@@@@@###+OO..XXXXXX                    ",
"                   +++@@@@@@@@@##+OO..XXXXXXXX                  ",
"                 ooo++++@@@@@@@@#+OO..@@@XXXXXXX                ",
"                oooooo+++++@@@@@#+OO..@@@@@XXXXXX               ",
"               ooo%%####++++++++++O...@@@@@@@XXXXX              ",
"              ooo%%#########++++++....$@@@@@@@@XXXX             ",
"             ooo%%#####@@@@@@@@+++...$$$$$@@@@@@XXXX            ",
"            ooo%%%###@@@@@@@@@@+++$$$$$$$$$@@@@@XXXX            ",
"            oo%%%###@@@@@@@@@@@++$$$$$$$$$$$@@@@@XXXX           ",
"           ooo%%%##@@@@@@@@@@@+++$$$$$$$$$$$@@@@@XXXX           ",
"           oo%%%###@@@@@@@@@@+++$$$$$$$$$$$$$@@@@@XXXX          ",
"          ooo%%%##@@@@@@@@@@++++$$$$$$$$$$$$$@@@@@XXXX          ",
"          oo%%%%##@@@@@@@@+++++$$$$$$$$$$$$$$$@@@@@XXXX         ",
"          oo%%%%##@@@@@@++++++$$$$$$$$$$$$$$$$@@@@@XXXX         ",
"         ooo%%%$##@@@@++++++$$$$$$$$$$$$$$$$$$@@@@@@XXXX        ",
"         oo%%%%$@@++++++++$$$$$$$$$$$$$$$$$$$$@@@@@@XXXX        ",
"         oo%%%%$+++++++$$$$$$$$$$$$$$$$$$$$$$$@@@@@@XXXX        ",
"        ooo%%%$$$$$$$$$$$$$$$$$$$$$$$$$$$$$$$$@@@@@@XXXXX       ",
"        oo%%%%$$$$$$$$$$$$$$$$$$$$$$$$$$$$$$$$@@@@@@@XXXX       ",
"        oo%%%%$$$$$$$$$$$$$$$$$$$$$$$$$$$$$$$$@@@@@@@XXXX       ",
"        oo%%%$$$$$$$$$$$$$$$$$$$$$$$$$$$$$$$$$@@@@@@@XXXX       ",
"        oo%%%$$$$$$$$$$$$$$$$$$$$$$$$$$$$$$$$$@@@@@@@XXXX       ",
"        oo%%%$$$$$$$$$$$$$$$$$$$$$$$$$$$$$$$$@@@@@@@@XXXX       ",
"        oo%%%$$$$$$$$$$$$$$$$$$$$$$$$$$$$$$$$@@@@@@@@XXXX       ",
"        ooo%%$$$$$$$$$$$$$$$$$$$$$$$$$$$$$$$@@@@@@@@@XXXX       ",
"        ooo%%$$$$$$$$$$$$$$$$$$$$$$$$$$$$$$$@@@@@@@@@XXXX       ",
"        ooo%%$$$$$$$$$$$$$$$$$$$$$$$$$$$$$$$@@@@@@@@@XXXX       ",
"         ooo%$$$$$$$$$$$$$$$$$$$$$$$$$$$$$$@@@@@@@@@@XXX        ",
"         ooo%$$$$$$$$$$$$$$$$$$$$$$$$$$$$$$@@@@@@@@@XXXX        ",
"         ooo%%$$$$$$$$$$$$$$$$$$$$$$$$$$$$@@@@@@@@@@XXXX        ",
"          oo%%$$$$$$$$$$$$$$$$$$$$$$$$$$$$@@@@@@@@@XXXX         ",
"          ooo%$$$$$$$$$$$$$$$$$$$$$$$$$$$@@@@@@@@@@XXXX         ",
"           oo%@$$$$$$$$$$$$$$$$$$$$$$$$@@@@@@@@@@@XXXX          ",
"           ooo@@$$$$$$$$$$$$$$$$$$$$$$@@@@@@@@@@@@XXXX          ",
"            oo@@@$$$$$$$$$$$$$$$$$$$$@@@@@@@@@@@@XXXX           ",
"            ooo@@@$$$$$$$$$$$$$$$$@@@@@@@@@@@@@@@XXXX           ",
"             ooo@@@@@$$$$$$$$$$@@@@@@@@@@@@@@@@@XXXX            ",
"             ooo@@@@@@@@$$$@@@@@@@@@@@@@@@@@@@@@XXXX            ",
"              ooX@@@@@@@@@@@@@@@@@@@@@@@@@@@@@@XXXX             ",
"               oXX@@@@@@@@@@@@@@@@@@@@@@@@@@@@XXXX              ",
"                XXX@@@@@@@@@@@XXXX@@@@@@@@@@@XXXX               ",
"                 XXX@@@@@@@@@XXXXXX@@@@@@@@@XXXX                ",
"                  XXXX@@@@@@@XXXXXX@@@@@@@XXXXX                 ",
"                    XXXX@@@@XXX  XXX@@@@XXXXXX                  ",
"                      XXXXXXXX    XXXXXXXXXX                    ",
"                        XXXX        XXXXXX                      ",
"                                                                "
};
