/* XPM */
static char *_22f9101f0eb42e1f0371f09bdaf4c32hiLUJ0Lydar0raDv[] = {
/* columns rows colors chars-per-pixel */
"18 18 19 1 ",
"  c None",
". c #101010",
"X c #3A2A0E",
"o c #282C2C",
"O c #684E1E",
"+ c #444444",
"@ c #515555",
"# c #626262",
"$ c #626868",
"% c #737777",
"& c #AE1A1A",
"* c #F40000",
"= c #8E9393",
"- c gray59",
"; c #959B9B",
": c #95A0A0",
"> c #C1C1C1",
", c #D8D8D8",
"< c white",
/* pixels */
"    o@@@@@@@@o    ",
"    @:;=;;:;;@    ",
"    @:;=;;;;:@    ",
"    @;;;;;;=:@    ",
"   ooo%=;==%ooo   ",
"   oooo$==$oooo   ",
"    oooo$$oooo    ",
"    ..&*..*&..    ",
"    @o..==..o@    ",
"    ++@o==o@++    ",
"   #>-+@==@+->#   ",
" ##>->+o==o+>->## ",
"#<>->-      ->-><#",
"#<,>>O      O>>,<#",
" #<<#OX    XO#<<# ",
"  ## XO    OX ##  ",
"      XO  OX      ",
"       X  X       "
};
