/* XPM */
static char *c8300e8d713e4e84de9db955ac6120aa4W7LXZ64Jm68ymzj[] = {
/* columns rows colors chars-per-pixel */
"64 64 198 2 ",
"   c None",
".  c #000101",
"X  c #030C0C",
"o  c #0B0C0C",
"O  c #011313",
"+  c #0D1313",
"@  c #001D1D",
"#  c #131B1B",
"$  c #1C1D1D",
"%  c #290000",
"&  c #340E07",
"*  c #291D0A",
"=  c #261805",
"-  c #291A16",
";  c #2F220B",
":  c #3C2B06",
">  c #35260D",
",  c #37280D",
"<  c #39290E",
"1  c #002323",
"2  c #0E2222",
"3  c #002C2C",
"4  c #082C2C",
"5  c #1E2222",
"6  c #172828",
"7  c #003333",
"8  c #003939",
"9  c #143636",
"0  c #1D3232",
"q  c #212525",
"w  c #262A2A",
"e  c #2A2D2D",
"r  c #3A2B2B",
"t  c #2D3131",
"y  c #2D3939",
"u  c #233636",
"i  c #333535",
"p  c #363939",
"a  c #3B3C3C",
"s  c #440404",
"d  c #590404",
"f  c #4E1B00",
"g  c #481818",
"h  c #541313",
"j  c #501A1A",
"k  c #6F0202",
"l  c #660000",
"z  c #750808",
"x  c #671F1F",
"c  c #761919",
"v  c #482A00",
"b  c #562700",
"n  c #48340A",
"m  c #5E3E00",
"M  c #533A04",
"N  c #402E11",
"B  c #453212",
"V  c #493614",
"C  c #4D3914",
"Z  c #533D15",
"A  c #452626",
"S  c #562323",
"D  c #4C3B21",
"F  c #573636",
"G  c #6C2727",
"H  c #7F2525",
"J  c #763C3C",
"K  c #574016",
"L  c #5F4615",
"P  c #564018",
"I  c #5B4419",
"U  c #5F4000",
"Y  c #674900",
"T  c #614605",
"R  c #644B1C",
"E  c #694E1D",
"W  c #654A14",
"Q  c #6B511F",
"!  c #644D26",
"~  c #6F5520",
"^  c #705C3F",
"/  c #004646",
"(  c #074A4A",
")  c #274747",
"_  c #354646",
"`  c #3D4242",
"'  c #374949",
"]  c #355A5A",
"[  c #424545",
"{  c #464A4A",
"}  c #4A4C4C",
"|  c #4D4945",
" . c #5C4646",
".. c #4D5151",
"X. c #475A5A",
"o. c #535454",
"O. c #545959",
"+. c #5A5C5C",
"@. c #6F5F4C",
"#. c #725E42",
"$. c #605F5F",
"%. c #774040",
"&. c #786956",
"*. c #5D6363",
"=. c #5B6A6A",
"-. c #597070",
";. c #626666",
":. c #646B6B",
">. c #6B6C6C",
",. c #7C6363",
"<. c #7D7164",
"1. c #6D7373",
"2. c #607272",
"3. c #727575",
"4. c #7E7975",
"5. c #757A7A",
"6. c #797D7D",
"7. c #767778",
"8. c #8B0000",
"9. c #951A1A",
"0. c #A10000",
"q. c #B40101",
"w. c #BA0000",
"e. c #A31111",
"r. c #AA1616",
"t. c #B91A1A",
"y. c #8D2121",
"u. c #9B2323",
"i. c #823535",
"p. c #A72020",
"a. c #B12E2E",
"s. c #CA0505",
"d. c #DC0C0C",
"f. c #C71616",
"g. c #D61414",
"h. c #D81717",
"j. c #E10000",
"k. c #EB0606",
"l. c #F50303",
"z. c #9A4E4E",
"x. c #8A7A66",
"c. c #807C7C",
"v. c #8D847B",
"b. c #978B7D",
"n. c #7C8383",
"m. c #778080",
"M. c #838585",
"N. c #858B8B",
"B. c #898E8E",
"V. c #8A8C8C",
"C. c #898580",
"Z. c #90908F",
"A. c #8B9191",
"S. c #8D9292",
"D. c #8A9595",
"F. c #8F9494",
"G. c #8D9292",
"H. c #8E9999",
"J. c #879090",
"K. c #919696",
"L. c #919696",
"P. c #929494",
"I. c #939999",
"U. c #939B9B",
"Y. c #959B9B",
"T. c #949A9A",
"R. c #959A9A",
"E. c #969C9C",
"W. c #969E9E",
"Q. c #949999",
"!. c #989E9E",
"~. c #9B9C9C",
"^. c #A19A93",
"/. c #9E9FA0",
"(. c #96A1A1",
"). c #99A1A1",
"_. c #9AA5A5",
"`. c #9CA3A3",
"'. c #9DA8A8",
"]. c #A3A4A4",
"[. c #ABABAB",
"{. c #A8A7A6",
"}. c #B0ABA6",
"|. c #B4B4B3",
" X c #B7B8B8",
".X c #BBBCBC",
"XX c #BAB9B7",
"oX c #C0BFBE",
"OX c #BFBFC0",
"+X c #C3C3C3",
"@X c #CACACA",
"#X c #C7C7C8",
"$X c #D5D5D5",
"%X c #DBDBDB",
"&X c #E4E4E4",
"*X c #EDEDED",
"=X c #F3F3F3",
"-X c #FDFDFD",
/* pixels */
"                            $ 5 e a [ { } } { } } } } } { } { } } } { } { { } { { } } ..} ` a e 5 $                             ",
"                            5 5 t ` { } o.................} o.} } ....} o.} ..............{ ` t 5 5                             ",
"                            w t _ ..+.=.:.;.;.;.*.*.*.*.*.=.;.;.;.=.;.=.;.;.;.;.;.;.;.:.=.+...` t w                             ",
"                            i a ..:.1.m.m.n.6.6.5.5.5.5.5.6.6.6.6.6.6.6.m.m.m.6.6.6.6.6.5.3.;.} a i                             ",
"                            a { O.5.n.D.H.F.A.A.B.N.N.N.B.B.S.A.A.S.A.S.D.D.F.D.S.B.S.F.B.M.5.+.{ _                             ",
"                            [ } :.n.H._._.).!.R.K.L.S.L.K.R.Y.!.Y.Y.Y.(.(.(.(.Y.Y.E.!.`.Y.S.m.;.} [                             ",
"                            [ ..:.n.H._.'.`.).!.R.R.L.I.Y.!.!.!.).!.).)._.)._.).).).`.`.).S.n.:...{                             ",
"                            [ } :.n.D.(.'._.).Y.R.L.S.L.R.Y.!.!.!.!.Y.(.Y.).(.Y.!.!.)._.(.F.m.;.} [                             ",
"                            [ } ;.m.D.(._.(.!.R.K.F.S.F.I.Y.Y.Y.R.R.Y.Y.Y.Y.Y.Y.Y.Y.)._.W.D.m.;.} [                             ",
"                            [ } =.m.F.(._.(.Y.R.R.L.F.F.I.Y.Y.Y.R.R.Y.Y.Y.Y.R.R.R.Y.Y._.(.D.n.=.} [                             ",
"                            [ } :.n.F.)._.).!.Y.R.K.I.I.I.I.Y.Y.Y.Y.Y.Y.Y.Y.R.R.I.U.).'._.H.n.:.} [                             ",
"                            { ..>.n.F.).`.`.!.!.Y.Y.I.R.U.Y.Y.Y.Y.Y.Y.Y.Y.R.R.L.L.I.(.'._.H.M.:.} {                             ",
"                            [ } =.6.B.I.!.Y.Y.Y.Y.Y.Y.Y.Y.Y.Y.Y.Y.Y.R.R.Y.Y.L.L.S.F.H.(.(.D.m.=.} [                             ",
"                            a [ O.>.6.M.B.A.S.F.I.I.R.Y.Y.Y.Y.Y.Y.R.I.R.Y.I.L.S.B.B.B.J.N.m.1.O.[ a                             ",
"                        w t y p [ o.*.>.3.6.M.B.S.L.I.Y.Y.Y.Y.Y.I.L.L.R.Y.I.F.B.N.n.6.5.2.=.o.{ p i t e                         ",
"                      w e e e t i y i ` o.:.3.n.N.A.L.I.Y.Y.Y.I.L.F.F.L.I.F.S.N.m.3.;.o.` p i i t e e e w                       ",
"                      e t t e w q + . o i ..;.1.m.M.B.S.K.I.I.I.L.S.S.S.S.B.N.6.3.=...i o . + q w e t t w                       ",
"                    e w e y e w q + . . w ` ..*.>.5.n.B.A.I.R.R.I.L.S.B.N.n.5.1.*.X.F w . . + 5 w e t t e e                     ",
"                      e t t t w w q 5 q e i a } O.:.3.m.B.F.R.R.R.L.S.N.n.3.:.O.} a i w q $ q w w t y e e                       ",
"                      w e t e e e w w e w q q i { o.;.3.m.B.L.L.L.L.B.n.1.;.o.[ i q q w e w w e e e t e e                       ",
"                      e e w e w e e e e q # O 6 u _ X.=.1.n.B.B.B.B.n.5.=..._ u 2 O # 6 e e e e w e w e e                       ",
"                          e e e e t t e 6 1 1 3 3 8 / ] =.5.m.M.M.n.5.=.] ( 8 7 3 @ 1 w e e t t e e e                           ",
"                            e e t t e e 0 6 3 3 4 3 8 ( X.2.1.7.5.1.=.X.( 7 3 3 3 3 6 u e e t t e e                             ",
"                            w w e w w w e r r A A j S F  .+.*.=.*.*.+. .F S j A A r r e w w e e w w                             ",
"                            $ 5 q 2 1 q r S G y.y.e.e.u.J  .` ) ) '  .J 9.e.e.9.H G S A 5 1 2 5 5 $                             ",
"                            o o o O O + S c y.p.t.g.d.g.e.x 1 1 3 1 x r.g.d.g.f.p.y.G j # O O + o o                             ",
"                            o o o X O o h c 9.f.h.k.l.d.q.k . X X X k q.j.l.k.h.t.r.c x X X X X o o                             ",
"                            e w w 1 @ + h z 9.r.s.j.k.g.a.J ) / / u J a.h.j.d.s.r.9.z h + @ 1 w q w                             ",
"                            ` ` _ y 4 5 & h z 8.0.q.w.a.z.,.=.-.-.:.,.z.a.w.w.0.8.z d - # 4 y ` [ [                             ",
"                            ......{ i 6 - g & d d l k %.,.6.N.B.N.N.c.,.J k l d d s & - w y { ..} o.                            ",
"                            O.O.O...a e 5 2 @ O . . . _ >.N.I.!.Y.U.N.2._ . . . O @ 2 6 e a ..O.O.O.                            ",
"                            } } } [ a t w 0 9 7 @ . X / -.B.Y.).`.Y.B.-./ X . @ 7 9 0 w t a [ } } }                             ",
"                            e i p i r e t ` ' ' 9 O O ' >.N.L.!.!.R.N.2.' O O 9 ` ' ` i e t y i t e                             ",
"                            i r a a p a [ } o...` 5 5 } >.N.L.R.R.L.M.>.{ 5 q ` ....} [ a a p F p i                             ",
"                            ;.>.>.>.$.+.O.O.o.o.{ y i ..1.N.F.R.R.L.N.1...i i [ ..O.+.O.+.$.>.>.>.>.                            ",
"                          7.V.Z.~.V.c.3.:.+.o.} ` a ` O.1.N.L.R.R.S.N.3.O.` a ` } o.$.;.>.c.Z.~.Z.M.3.                          ",
"                      e o.c.~.|.|.[.~.M.7.;.o._ a a } ;.5.N.L.R.I.L.N.5.;...` a _ ..;.7.M.~.[.|.|.Q.4.o.e                       ",
"                      o.>.P.[.OXoXoX[.~.C.>.o.F a [ ..;.5.N.L.K.I.F.N.5.;...` a F o.>.C.~.[..X+XoX[.P.>.o.                      ",
"                    7.c.Q.[.|. X.XXX|.[.Q.c.$.p e a } ;.6.B.Y.Y.!.R.A.6.;.} a e p $.c.Q.[.|..X.X.X|.[.Z.c.7.                    ",
"          5 - o i >.V./.[. X[.{.[.|..X.X}.V.$.p q w _ +.6.F.`.].].).F.6.+.a w q p ;.V.[. X.X|.[.[.[.|.|./.V.>.i + 5 -           ",
"        { } | F } 1.P.|.oXXX{.~.Q.[.OXOX[.P.;.i X X w o.7.B.!.`.`.!.B.3.o.e X X t ;.P.|.OX.X[.~.Q.[..XoX|.P.3.} ` | } {         ",
"      M.M.P.D.m.7.M.].XXOX.X[./.^.[.OXOX|.P.;.e . . $ { >.M.L.R.R.L.M.1.{ $ . . e ;.Z.|.OXOX[.~.~.[..XoX X].M.7.c.Z.Z.M.M.      ",
"    V.[. X@X#X|././.].|.|.|.[.{.[.|.OX X[.I.>.- . . # { >.N.L.R.R.L.N.>.{ # . . - >.P.}.|..X|.{.{.[.|.|.[.{.E.^.|.#X#X X{.N.    ",
"` o.V..X%X*X&X@X X{.].^./.{.[.XX X.X|.{./.I.                                        P./.{.XX XXX|.|.{././.].[. X$X&X*X%X.XB.X.F ",
"` o.Z.@X=X-X-X&X@X|.[.~.Q./.|.oXoXXX|.Q.Z.                                            Z.Q.|.oXoXoX|./.P.~.{. X@X&X-X-X=X@XP.o.F ",
"| +.~.$X-X-X-X*X$X+X|./.^.{.XX+X+XXX{.C.c.                                            c.v.{.XX+X#X X{.^.].|.OX$X*X-X-X-X$X~.+.' ",
"{ +.~.%X-X-X-X=X$X+X X[.[.|.oX@X+X|.^.<.@.                                            @.<.^.|.oX#XOX|.{.[.XX+X$X*X-X-X-X%X^.+.{ ",
"[ +.R.$X=X-X-X*X%X@X+X.X X X+X#XoX}.b.^ m                                             T ^ b.}.oX#X+XOX X.X+X@X%X=X-X-X=X$XP.+.[ ",
"F ..A.+X&X=X-X*X&X%X$X$X@X#X#XOX|.~.x.Y b f                                         f b Y x.^.|.OX#X#X@X$X$X%X&X*X=X-X&XoXV.o.F ",
"p ..M.[.OX%X*X*X*X*X=X*X&X%X@X|.Y.v.&.Y b b v                                     v b b Y &.v.~.|.@X%X&X*X=X=X*X*X*X%XoX[.V...p ",
"      M.N.|.%X*X-X-X-X-X-X&X@X`.4.&.#.Q m M : *                                 * : M m E ^ &.5.].#X&X-X-X-X-X-X*X%X|.V.M.      ",
"        F 3.|.%X=X-X-X-X-X&XXXM.| D ! R T M B > ;                             ; , B M T E ! D | M. X&X-X-X-X-X=X%X|.1.p         ",
"        . { Q.+X&X=X-X-X*X$X|.7.* & Z W W W K B B                             B B K L W R Z & * 7.|.$X*X-X-X-X&X#XP.{ .         ",
"            M.{..X%X%X%X@X|.].    % n K L R R I I                             I I R W L Z n %     /.|.@X%X%X$XOX[.M.            ",
"              M.M.~./.^.Z.M.        : B Z R Q E E                             E E Q R K B :         N.Z././.^.M.c.              ",
"              } } } ..} } }         = > V I E E Q                             ~ E E I V > =         } } } ..} } }               ",
"                $ $ - $ $             > N C I I R R                         R R R I C B ;             $ $ $ $ $                 ",
"                                        N B V I P R Q ~                 ~ Q I I K V B N                                         ",
"                                          > > B I R ! E                 ~ R E I B > >                                           ",
"                                            * < C R ~ R R             R R E R C < *                                             ",
"                                              < B Z I P P             P P I Z V <                                               ",
"                                                N B B B B             B B B B N                                                 ",
"                                                  > , , ,             , > > ,                                                   ",
"                                                  > > > >             > > > >                                                   "
};
